# xmcd CD Database Entry
#
# Track frame offsets:
# 150
# 17165
# 35592
# 57115
# 76450
# 91125
# 113672
# 135602
# 157045
# 178277
# 193197
# 212332
#
# Disc length: 2946 seconds
#
# Revision: 3
# Processed by: cddbd v1.4b41PL1 Copyright (c) Steve Scherf et al.
# Submitted via: tcd 2.0b
#
DISCID=9e0b800c
DTITLE=TrueBliss - Dream (1999)
DYEAR=1900
DGENRE=
TTITLE0=tonight
TTITLE1=number one
TTITLE2=la isla bonita
TTITLE3=i love the way
TTITLE4=believe
TTITLE5=don't turn your back
TTITLE6=my sweet love
TTITLE7=freedom
TTITLE8=dream (let this be the love)
TTITLE9=heaven
TTITLE10=love to love
TTITLE11=closer (a capella)
EXTD=http://www.truebliss.co.nz/
EXTT0=
EXTT1=
EXTT2=
EXTT3=
EXTT4=
EXTT5=
EXTT6=
EXTT7=
EXTT8=
EXTT9=
EXTT10=
EXTT11=
PLAYORDER=
